<svg version="1.1" id="Layer_1" xmlns="http://www.w3.org/2000/svg" xmlns:xlink="http://www.w3.org/1999/xlink" x="0px" y="0px"
	 width="100%" viewBox="0 0 512 512" enable-background="new 0 0 512 512" xml:space="preserve">
<path fill="#000000" opacity="1.000000" stroke="none" 
	d="
M1.000000,181.468658 
	C4.336740,176.691528 8.645580,175.469818 14.104513,175.532150 
	C38.261471,175.807907 62.423321,175.648102 86.583397,175.661270 
	C94.523598,175.665604 98.240059,178.907516 98.342285,185.847824 
	C98.451462,193.258835 94.534012,197.259338 86.517258,197.306335 
	C66.856644,197.421600 47.193401,197.473404 27.534683,197.248230 
	C22.845644,197.194534 21.182539,198.397812 21.242041,203.353592 
	C21.498072,224.678024 21.100470,246.010941 21.407845,267.334015 
	C21.900360,301.500549 28.706205,334.207092 45.666405,364.254120 
	C57.016533,384.362183 71.294846,402.108459 89.132179,416.950012 
	C96.030098,422.689423 103.217590,427.934631 110.650475,432.945709 
	C114.756317,435.713715 118.776306,436.744598 123.627197,436.734528 
	C179.778305,436.618042 235.931213,436.458466 292.079712,436.859985 
	C301.559845,436.927765 309.414520,434.774536 317.082123,429.388702 
	C348.662537,407.206055 372.018646,378.513123 386.409332,342.696777 
	C394.955963,321.425415 398.962189,299.311432 399.923798,276.291138 
	C400.939392,251.980240 399.982666,227.698959 400.744476,203.421005 
	C400.898132,198.525391 399.266205,197.251480 394.519501,197.261368 
	C330.037354,197.395767 265.554871,197.349243 201.072449,197.344864 
	C199.073135,197.344742 197.060898,197.459183 195.076828,197.277908 
	C187.964813,196.628113 184.405701,192.508957 184.668106,185.386795 
	C184.903198,179.005325 188.721405,175.666870 195.925140,175.664352 
	C235.081131,175.650681 274.237122,175.658188 313.393097,175.657333 
	C345.384369,175.656631 377.375671,175.647110 409.366943,175.657654 
	C418.151703,175.660538 421.317139,178.867218 421.346924,187.707642 
	C421.359863,191.539902 421.348083,195.372223 421.350525,199.204514 
	C421.355316,206.648163 421.356232,206.650711 428.573700,206.651154 
	C452.733765,206.652649 476.893951,206.686249 501.053833,206.622421 
	C505.653992,206.610275 509.529968,207.901642 512.740479,211.768585 
	C513.000000,242.020889 513.000000,272.041779 512.881836,302.894775 
	C512.478821,305.521667 512.285339,307.336670 511.895081,309.108307 
	C507.167908,330.568970 496.574951,348.706604 479.893005,362.900452 
	C466.706299,374.120361 451.514618,381.514587 434.184753,384.538208 
	C420.952515,386.846954 407.699310,386.290405 394.434235,386.296051 
	C390.570770,386.297699 388.134064,387.323364 385.920654,390.755280 
	C376.601746,405.204346 364.925568,417.699005 352.589478,429.599548 
	C350.435913,431.677094 347.001129,432.521881 346.102417,436.000031 
	C348.183411,437.120087 350.213135,436.630371 352.151367,436.633148 
	C379.964020,436.672943 407.776764,436.647552 435.589478,436.674652 
	C441.325745,436.680237 444.987244,439.892761 445.332489,445.027069 
	C447.165985,472.293274 430.334381,498.540161 404.837585,508.731628 
	C401.548798,510.046204 397.672211,510.217529 395.000000,513.000000 
	C280.645782,513.000000 166.291550,513.000000 51.295425,512.761230 
	C50.095657,512.187927 49.578140,511.715179 48.974072,511.538788 
	C27.908337,505.386475 13.295082,492.134613 4.836104,471.888123 
	C3.596583,468.921356 3.698718,465.335480 1.000000,463.000000 
	C1.000000,455.979034 1.000000,448.958099 1.275407,441.357666 
	C4.031179,437.805878 7.073257,436.559235 11.068732,436.590881 
	C30.566931,436.745392 50.067055,436.657104 69.566498,436.654785 
	C71.509804,436.654541 73.453117,436.654724 75.579643,436.654724 
	C75.173187,434.337677 73.991638,433.146484 72.783035,432.092346 
	C63.253643,423.781097 54.592804,414.719788 46.565605,404.886536 
	C25.114986,378.609680 11.616175,348.766327 4.457319,315.781097 
	C3.387530,310.851929 4.062966,305.466553 1.000000,301.000000 
	C1.000000,261.312439 1.000000,221.624878 1.000000,181.468658 
M75.500031,457.366486 
	C58.427578,457.366486 41.355125,457.366486 23.742718,457.366486 
	C25.070431,464.972076 28.494169,470.365356 32.627888,475.368286 
	C43.202198,488.166260 57.375984,492.642639 73.361809,492.647034 
	C167.527222,492.672882 261.692688,492.686310 355.858032,492.617035 
	C364.320007,492.610809 372.773102,492.457184 381.259491,491.912567 
	C395.357605,491.007812 405.854797,484.278015 414.494080,474.105255 
	C418.268311,469.661163 421.383698,464.408051 422.181458,457.367432 
	C306.675598,457.367432 191.587814,457.367432 75.500031,457.366486 
M421.351013,236.591873 
	C421.350769,237.591156 421.349274,238.590439 421.350525,239.589722 
	C421.359497,246.647263 421.359650,246.648819 428.453461,246.650467 
	C439.279694,246.652985 450.106049,246.620682 460.932129,246.664230 
	C470.139709,246.701263 473.335297,249.874725 473.346375,258.883484 
	C473.359650,269.709717 473.431061,280.536713 473.331696,291.362030 
	C473.158997,310.172180 464.714813,324.559570 449.755371,335.579590 
	C439.134521,343.403564 427.160614,346.309753 414.234711,346.429810 
	C412.237427,346.448334 409.586670,345.366638 408.437805,348.010742 
	C406.161743,353.248993 403.390076,358.323456 401.987122,364.539459 
	C410.281036,364.597778 417.984497,364.789490 425.781494,363.754669 
	C441.601929,361.654999 455.350189,355.258179 467.161224,344.755249 
	C485.386688,328.548187 492.130280,307.341370 492.592316,283.741425 
	C492.915009,267.258514 492.508575,250.762009 492.757263,234.276535 
	C492.827087,229.647797 491.348602,228.227844 486.776703,228.274826 
	C467.458130,228.473373 448.136261,228.354462 428.815613,228.356186 
	C421.382080,228.356857 421.382080,228.362396 421.351013,236.591873 
M427.705231,268.350220 
	C422.686523,267.530396 420.982025,269.521545 421.250732,274.662659 
	C421.866638,286.446747 420.724152,298.125214 418.595215,309.772095 
	C417.729797,314.506409 415.921143,319.247498 416.426605,324.258667 
	C433.501495,323.421997 446.289459,313.647766 450.649841,297.851746 
	C452.870972,289.805603 452.701447,281.455963 452.725250,273.148041 
	C452.736237,269.317200 451.146515,268.230286 447.633759,268.314087 
	C441.311554,268.464966 434.983063,268.353241 427.705231,268.350220 
z"/>
<path fill="#000000" opacity="1.000000" stroke="none" 
	d="
M212.541931,1.000000 
	C219.077621,7.036942 220.400497,11.159511 215.956924,17.626499 
	C206.884567,30.830050 210.101990,42.204716 219.502457,53.337788 
	C228.249573,63.697105 233.162125,75.748291 233.245056,89.291603 
	C233.345139,105.634003 227.095795,119.652649 215.666931,131.294083 
	C211.046387,136.000580 205.420563,136.507950 200.973648,132.962967 
	C196.266266,129.210342 195.323334,123.374496 198.662415,117.805084 
	C201.471893,113.118988 205.363632,109.212021 207.861755,104.237740 
	C214.633347,90.754044 211.711227,78.741974 202.614075,67.758385 
	C193.837250,57.161545 188.019363,45.391846 188.812592,31.452730 
	C189.455475,20.155489 192.888168,9.600463 201.770508,1.244992 
	C205.361282,1.000000 208.722580,1.000000 212.541931,1.000000 
z"/>
<path fill="#000000" opacity="1.000000" stroke="none" 
	d="
M284.020386,90.311234 
	C292.913055,113.133766 288.511932,133.298538 273.373199,151.494949 
	C271.176086,154.135818 268.880432,156.847519 264.994537,157.328720 
	C259.790588,157.973129 255.598114,156.182281 253.156250,151.718506 
	C250.796432,147.404648 252.197662,143.048721 254.781784,139.122742 
	C257.595764,134.847549 261.660767,131.488800 263.688293,126.616730 
	C269.194916,113.384636 267.102631,101.334671 258.259827,90.273491 
	C252.312973,82.834785 246.854874,75.145683 245.299469,65.417351 
	C243.020355,51.162689 245.258499,37.948875 254.486069,26.434107 
	C258.064819,21.968287 264.596161,21.445826 269.849274,24.967226 
	C273.774414,27.598429 274.981506,35.131363 271.803101,39.927929 
	C268.899628,44.309616 266.827209,48.821541 266.321564,54.114658 
	C265.509918,62.611229 269.376404,69.276100 274.554718,75.305275 
	C278.392822,79.774010 281.416779,84.657227 284.020386,90.311234 
z"/>
<path fill="#000000" opacity="1.000000" stroke="none" 
	d="
M156.644012,64.261116 
	C158.999649,70.309883 163.151886,74.712723 166.767471,79.424065 
	C181.665787,98.837509 181.549255,128.339996 164.873840,148.189514 
	C163.275162,150.092499 161.846909,152.153854 160.127151,153.936829 
	C156.385788,157.815689 150.029739,158.605698 146.050720,155.850372 
	C141.681839,152.825043 140.027420,146.674789 142.783218,141.594223 
	C144.821884,137.835739 147.663132,134.519745 150.046234,130.939682 
	C158.602036,118.086533 157.667572,102.546852 147.784668,90.821831 
	C141.420776,83.271736 135.885025,75.181328 134.239838,65.194191 
	C131.924149,51.136696 134.372070,38.059566 143.434113,26.705786 
	C147.275528,21.892876 153.997147,21.413139 159.135178,25.236774 
	C162.843216,27.996239 163.831284,35.093231 160.856476,39.858974 
	C157.449768,45.316635 154.779358,50.866814 155.282852,57.572193 
	C155.447647,59.766823 155.910080,61.823112 156.644012,64.261116 
z"/>
<path fill="#000000" opacity="1.000000" stroke="none" 
	d="
M308.740723,376.174744 
	C313.524475,367.707367 320.843170,361.730957 326.076172,353.994873 
	C337.773193,336.702881 345.666565,318.012421 349.771881,297.538940 
	C351.577972,288.531738 350.855652,279.354095 352.666107,270.410156 
	C353.863983,264.492340 358.140137,261.949890 365.533630,262.693237 
	C370.057404,263.148010 373.197845,266.894409 373.346222,271.976349 
	C374.259613,303.260468 365.584930,331.921234 349.472015,358.482086 
	C343.177948,368.857330 335.958862,378.556488 327.120331,386.977814 
	C322.518372,391.362518 318.256287,392.181641 313.337891,389.306122 
	C308.694611,386.591461 307.150848,382.378357 308.740723,376.174744 
z"/>
<path fill="#000000" opacity="1.000000" stroke="none" 
	d="
M287.657471,394.684998 
	C295.866119,397.193298 298.674896,402.301117 296.150574,409.373566 
	C294.195007,414.852478 287.189728,417.506592 281.231232,415.026154 
	C276.410248,413.019196 274.428192,408.305115 275.759369,402.011505 
	C276.729919,397.422852 280.931702,394.733826 287.657471,394.684998 
z"/>
<path fill="#000000" opacity="1.000000" stroke="none" 
	d="
M144.003204,197.259003 
	C134.365356,194.616806 130.793259,188.208374 134.652451,181.219421 
	C136.926849,177.100555 142.181656,174.767471 146.912964,175.775833 
	C151.281265,176.706833 155.018997,181.447159 155.214890,186.304672 
	C155.382553,190.462662 152.195343,194.767227 147.743011,196.325943 
	C146.656952,196.706177 145.522369,196.947784 144.003204,197.259003 
z"/>
</svg>